<?xml version="1.0"?>
<svg width="108" height="26" xmlns="http://www.w3.org/2000/svg" xmlns:svg="http://www.w3.org/2000/svg">
 <g class="layer">
  <title>Layer 1</title>
  <path clip-rule="evenodd" d="m24.82,15.13c0.12,-0.69 0.18,-1.4 0.18,-2.13c0,-6.9 -5.6,-12.5 -12.5,-12.5c-4.19,0 -7.89,2.06 -10.16,5.22c1.27,-0.18 2.52,-0.1 3.76,0.22c3.14,0.79 5.8,3.03 7.96,4.85l0.17,0.14c2.29,1.93 4.15,3.49 6.14,4.23c1.29,0.48 2.71,0.64 4.45,-0.03zm-2.38,5.45c-2.28,2.99 -5.88,4.92 -9.94,4.92c-6.9,0 -12.5,-5.6 -12.5,-12.5c0,-0.36 0.01,-0.71 0.04,-1.06c2.07,-1.41 3.59,-1.47 4.83,-1.16c1.83,0.47 3.64,1.86 5.97,3.83c0.14,0.12 0.28,0.24 0.42,0.36l0,0c2.05,1.73 4.53,3.82 7.37,4.88c1.23,0.46 2.5,0.71 3.81,0.73z" fill="#3CDDF3" fill-rule="evenodd" id="svg_1"/>
  <path d="m39.41,20.4c-1.13,0 -2.11,-0.21 -2.93,-0.63c-0.81,-0.43 -1.43,-0.98 -1.85,-1.66c-0.42,-0.7 -0.63,-1.43 -0.63,-2.19l0,-0.15l3.41,0l0,0.15c0,0.46 0.18,0.86 0.53,1.22c0.35,0.36 0.87,0.54 1.54,0.54c0.56,0 1,-0.13 1.34,-0.39c0.35,-0.27 0.53,-0.63 0.53,-1.09c0,-0.41 -0.15,-0.73 -0.45,-0.97c-0.31,-0.24 -0.69,-0.39 -1.14,-0.46l-1.52,-0.3c-0.99,-0.19 -1.89,-0.59 -2.7,-1.2c-0.81,-0.61 -1.21,-1.54 -1.21,-2.78c0,-1.27 0.46,-2.27 1.39,-2.98c0.92,-0.73 2.11,-1.1 3.56,-1.1c1.06,0 1.98,0.2 2.75,0.59c0.78,0.39 1.37,0.91 1.77,1.55c0.41,0.63 0.61,1.31 0.61,2.04l0,0.1l-3.41,0l0,-0.07c0,-0.41 -0.15,-0.78 -0.46,-1.12c-0.3,-0.36 -0.76,-0.54 -1.39,-0.54c-0.52,0 -0.94,0.14 -1.26,0.41c-0.32,0.27 -0.48,0.63 -0.48,1.07c0,0.41 0.16,0.73 0.48,0.97c0.34,0.24 0.75,0.4 1.24,0.48l1.67,0.33c1.07,0.24 1.98,0.67 2.72,1.3c0.74,0.61 1.11,1.49 1.11,2.63c0,0.85 -0.22,1.59 -0.68,2.24c-0.45,0.65 -1.08,1.15 -1.89,1.5c-0.79,0.34 -1.68,0.51 -2.65,0.51z" fill="#ffffff" id="svg_2" transform="matrix(1 0 0 1 0 0)"/>
  <path d="m53.83,20.4c-1.13,0 -2.01,-0.26 -2.65,-0.79c-0.64,-0.52 -1.11,-1.1 -1.41,-1.73l-0.21,0l0,7.62l-3.51,0l0,-18.76l3.51,0l0,2.09l0.21,0c0.27,-0.57 0.72,-1.12 1.36,-1.63c0.64,-0.52 1.53,-0.79 2.68,-0.79c1.7,0 3,0.64 3.91,1.91c0.93,1.28 1.39,2.99 1.39,5.13c0,2.09 -0.46,3.77 -1.39,5.04c-0.91,1.28 -2.2,1.91 -3.89,1.91zm-1.26,-2.8c1.01,0 1.76,-0.41 2.25,-1.22c0.5,-0.82 0.76,-1.8 0.76,-2.96c0,-1.12 -0.26,-2.08 -0.76,-2.88c-0.49,-0.81 -1.24,-1.22 -2.25,-1.22c-0.99,0 -1.74,0.41 -2.25,1.22c-0.5,0.82 -0.76,1.78 -0.76,2.91c0,1.13 0.26,2.11 0.76,2.93c0.51,0.81 1.26,1.22 2.25,1.22z" fill="#ffffff" id="svg_3" transform="matrix(1 0 0 1 0 0)"/>
  <path d="m66.79,20.4c-1.39,0 -2.57,-0.31 -3.53,-0.94c-0.94,-0.65 -1.65,-1.49 -2.12,-2.55c-0.48,-1.05 -0.71,-2.21 -0.71,-3.46c0,-1.26 0.23,-2.42 0.68,-3.47c0.47,-1.07 1.19,-1.93 2.15,-2.57c0.96,-0.65 2.14,-0.97 3.53,-0.97c1.4,0 2.58,0.32 3.54,0.97c0.96,0.62 1.68,1.47 2.15,2.52c0.47,1.05 0.71,2.21 0.71,3.46c0,1.26 -0.24,2.43 -0.71,3.5c-0.47,1.05 -1.19,1.9 -2.15,2.54c-0.96,0.65 -2.14,0.97 -3.54,0.97zm0,-2.85c0.98,0 1.71,-0.39 2.2,-1.17c0.51,-0.8 0.76,-1.8 0.76,-2.99c0,-1.18 -0.25,-2.16 -0.76,-2.93c-0.49,-0.78 -1.22,-1.17 -2.2,-1.17c-0.97,0 -1.7,0.39 -2.19,1.17c-0.49,0.77 -0.74,1.75 -0.74,2.93c0,1.19 0.25,2.19 0.74,2.99c0.5,0.78 1.23,1.17 2.19,1.17z" fill="#ffffff" id="svg_4" transform="matrix(1 0 0 1 0 0)"/>
  <path d="m74.88,6.74l3.46,0l0,2.14l0.17,0c0.22,-0.59 0.63,-1.09 1.22,-1.5c0.59,-0.42 1.34,-0.64 2.27,-0.64c0.35,0 0.66,0.04 0.91,0.11l-0.15,3.23c-0.42,-0.12 -0.87,-0.18 -1.34,-0.18c-1.05,0 -1.82,0.28 -2.33,0.84c-0.5,0.55 -0.75,1.46 -0.75,2.73l0,6.73l-3.46,0l0,-13.46z" fill="#ffffff" id="svg_5"/>
  <path d="m88.66,9.5l0,5.98c0,0.6 0.03,1.04 0.08,1.33c0.06,0.29 0.23,0.52 0.5,0.69c0.27,0.17 0.71,0.25 1.32,0.25c0.35,0 0.71,-0.03 1.08,-0.1l0,2.45c-0.18,0.03 -0.52,0.07 -1.01,0.12c-0.47,0.06 -0.93,0.08 -1.39,0.08c-1.23,0 -2.15,-0.18 -2.75,-0.53c-0.59,-0.38 -0.96,-0.84 -1.11,-1.38c-0.15,-0.56 -0.23,-1.27 -0.23,-2.14l0,-6.75l-2.22,0l0,-2.76l2.25,0l0,-4.38l3.48,0l0,4.38l2.98,0l0,2.76l-2.98,0z" fill="#ffffff" id="svg_6"/>
  <path d="m93.81,6.74l3.49,0l0,13.46l-3.49,0l0,-13.46zm1.72,-2.32c-0.56,0 -1.02,-0.18 -1.39,-0.56c-0.37,-0.39 -0.56,-0.85 -0.56,-1.4c0,-0.56 0.19,-1.03 0.56,-1.4c0.37,-0.37 0.83,-0.56 1.39,-0.56c0.56,0 1.02,0.2 1.39,0.59c0.37,0.37 0.55,0.83 0.55,1.37c0,0.55 -0.18,1.01 -0.55,1.4c-0.37,0.38 -0.83,0.56 -1.39,0.56z" fill="#ffffff" id="svg_7"/>
  <path d="m104.7,9.5l0,5.98c0,0.6 0.03,1.04 0.08,1.33c0.07,0.29 0.24,0.52 0.5,0.69c0.27,0.17 0.71,0.25 1.32,0.25c0.35,0 0.71,-0.03 1.08,-0.1l0,2.45c-0.18,0.03 -0.52,0.07 -1.01,0.12c-0.47,0.06 -0.93,0.08 -1.39,0.08c-1.22,0 -2.14,-0.18 -2.75,-0.53c-0.59,-0.38 -0.96,-0.84 -1.11,-1.38c-0.15,-0.56 -0.23,-1.27 -0.23,-2.14l0,-6.75l-2.22,0l0,-2.76l2.25,0l0,-4.38l3.48,0l0,4.38l2.98,0l0,2.76l-2.98,0z" fill="#ffffff" id="svg_8"/>
 </g>
</svg>